<?xml version="1.0" encoding="utf-8"?>
<!-- Generator: Adobe Illustrator 27.5.0, SVG Export Plug-In . SVG Version: 6.00 Build 0)  -->
<svg version="1.1" id="Layer_1" xmlns="http://www.w3.org/2000/svg" xmlns:xlink="http://www.w3.org/1999/xlink" x="0px" y="0px"
	 viewBox="0 0 407.6 280.8" style="enable-background:new 0 0 407.6 280.8;" xml:space="preserve">
<style type="text/css">
	.st0{fill:#FFDD83;}
	.st1{fill:#00235B;}
	.st2{fill:#E21818;}
	.st3{fill:none;}
	.st4{fill:#FFFFFF;}
</style>
<g>
	<path d="M21.3,240l-7.6,17.3H0l33.5-75.9h13.7l33.5,75.9H66.9L59.3,240H21.3z M54.1,228.2l-13.8-31.3l-13.8,31.3H54.1z"/>
	<path d="M119.7,210.9c-6,0-10.5,2-13.6,5.9c-3,3.9-4.6,9.2-4.6,15.8v24.8H89.4v-57.8h12.2v11.6c2-3.6,4.6-6.6,8-8.9
		c3.4-2.3,6.9-3.5,10.7-3.6l0.1,12.3C120.1,210.9,119.9,210.9,119.7,210.9z"/>
	<path d="M147.5,209.3v29.3c0,2.8,0.7,4.9,2.2,6.6c1.4,1.6,3.5,2.4,6.1,2.4c2.6,0,5.1-1.3,7.5-3.8l5,8.6c-4.3,3.8-9,5.8-14.2,5.8
		c-5.2,0-9.6-1.8-13.3-5.4c-3.7-3.6-5.5-8.4-5.5-14.5v-29h-7.3v-9.8h7.3v-18.1h12.2v18.1h15.2v9.8H147.5z"/>
	<path d="M192.5,257.3h-12.8v-75.9h20l22.9,47.7l22.9-47.7h19.9v75.9h-12.8V198l-26.5,52.7h-7.2L192.5,198V257.3z"/>
	<path d="M331.6,257.3h-11.1v-7.7c-4.8,5.7-11.2,8.6-19.2,8.6c-6,0-11-1.7-14.9-5.1c-3.9-3.4-5.9-7.9-5.9-13.6
		c0-5.7,2.1-9.9,6.3-12.8c4.2-2.8,9.9-4.2,17.1-4.2h15.8v-2.2c0-7.7-4.3-11.5-12.8-11.5c-5.4,0-10.9,2-16.7,5.9l-5.4-7.6
		c7-5.6,15-8.4,23.9-8.4c6.8,0,12.4,1.7,16.7,5.2c4.3,3.4,6.5,8.9,6.5,16.2V257.3z M319.4,235.8v-4.9h-13.7
		c-8.8,0-13.1,2.8-13.1,8.3c0,2.8,1.1,5,3.3,6.5c2.2,1.5,5.2,2.2,9.1,2.2c3.9,0,7.3-1.1,10.2-3.3
		C317.9,242.4,319.4,239.5,319.4,235.8z"/>
	<path d="M379.5,198.6c7.7,0,14.4,2.7,19.9,8c5.5,5.4,8.3,12.5,8.3,21.4c0,8.9-2.7,16.2-8.2,21.7c-5.5,5.6-11.8,8.4-19.1,8.4
		c-7.3,0-13.8-3.2-19.6-9.6v29.8h-12.2v-78.9h12.2v10.1C365.4,202.3,371.7,198.6,379.5,198.6z M360.4,228.5c0,5.5,1.7,10,5,13.5
		c3.3,3.5,7.4,5.3,12.2,5.3c4.8,0,8.9-1.7,12.5-5.2c3.5-3.5,5.3-8,5.3-13.5c0-5.5-1.7-10.1-5.2-13.8c-3.5-3.7-7.6-5.5-12.5-5.5
		c-4.9,0-8.9,1.8-12.3,5.5C362.1,218.4,360.4,223,360.4,228.5z"/>
</g>
<g>
	<path class="st0" d="M205.9,147.9h-57.5c-19.2,0-34.7-15.6-34.7-34.7v-1.1c0-19.2,15.6-34.7,34.7-34.7h7.6
		c2.2,6.1,5.4,12.4,9.6,18.6C175.7,110.8,205.9,147.9,205.9,147.9z"/>
	<path class="st1" d="M299,112.1v1.1c0,19.2-15.5,34.7-34.7,34.7h-58.4c0,0-30.2-37.1-40.2-51.9c-4.2-6.2-7.4-12.5-9.6-18.6h108.2
		C283.5,77.3,299,92.9,299,112.1z"/>
	<path class="st2" d="M255.7,77.3c-2.2,6.1-5.4,12.4-9.6,18.6c-10,14.8-40.2,51.9-40.2,51.9s-30.2-37.1-40.2-51.9
		c-4.2-6.2-7.4-12.5-9.6-18.6c-8.2-22.5-3.1-43.7,12.9-59.7c10.2-10.2,23.6-15.3,36.9-15.3s26.7,5.1,36.9,15.3
		C258.8,33.6,263.9,54.8,255.7,77.3z"/>
	<path class="st3" d="M246.1,96c-10,14.8-40.2,51.9-40.2,51.9s-30.2-37.1-40.2-51.9C146,66.8,148.6,38,169,17.6
		c10.2-10.2,23.5-15.3,36.9-15.3c13.4,0,26.7,5.1,36.9,15.3C263.2,38,265.9,66.8,246.1,96z"/>
	<circle class="st4" cx="205.9" cy="50.1" r="23.4"/>
</g>
</svg>
