<?xml version="1.0" encoding="UTF-8"?><svg id="Layer_1" xmlns="http://www.w3.org/2000/svg" viewBox="0 0 412.7 282.15"><defs><style>.cls-1{fill:#fff;}.cls-2{font-family:Montserrat-Regular, Montserrat;font-size:108.64px;}.cls-3{fill:#ffdd83;}.cls-4{fill:#00235b;}.cls-5{fill:#e21818;}.cls-6{fill:none;}</style></defs><text class="cls-2" transform="translate(0 255)"><tspan x="0" y="0">ArtMap</tspan></text><path class="cls-3" d="m205.91,145.55h-57.49c-19.16,0-34.73-15.56-34.73-34.73v-1.07c0-19.19,15.56-34.73,34.73-34.73h7.64c2.21,6.13,5.41,12.36,9.64,18.61,10.03,14.84,40.21,51.91,40.21,51.91Z"/><path class="cls-4" d="m299.01,109.75v1.07c0,19.16-15.54,34.73-34.73,34.73h-58.37s-30.17-37.07-40.21-51.91c-4.23-6.25-7.43-12.47-9.64-18.61h108.22c19.19,0,34.73,15.54,34.73,34.73Z"/><path class="cls-5" d="m255.73,75.03c-2.21,6.13-5.41,12.36-9.64,18.61-10.01,14.84-40.18,51.91-40.18,51.91,0,0-30.17-37.07-40.21-51.91-4.23-6.25-7.43-12.47-9.64-18.61-8.15-22.51-3.07-43.74,12.94-59.74C179.2,5.09,192.55,0,205.91,0s26.71,5.09,36.89,15.28c16.03,16,21.11,37.21,12.94,59.74Z"/><path class="cls-6" d="m246.1,93.64c-10.03,14.83-40.2,51.9-40.2,51.9,0,0-30.17-37.07-40.2-51.9-19.76-29.2-17.08-57.98,3.3-78.36,10.19-10.19,23.54-15.28,36.9-15.28s26.71,5.09,36.9,15.28c20.38,20.38,23.06,49.16,3.3,78.36Z"/><circle class="cls-1" cx="205.91" cy="47.8" r="23.37"/></svg>