<?xml version="1.0" encoding="utf-8"?>
<!-- Generator: Adobe Illustrator 27.5.0, SVG Export Plug-In . SVG Version: 6.00 Build 0)  -->
<!--suppress ALL -->
<svg version="1.1" id="Layer_1" xmlns="http://www.w3.org/2000/svg" xmlns:xlink="http://www.w3.org/1999/xlink" x="0px" y="0px"
	 viewBox="0 0 407.6 280.8" style="enable-background:new 0 0 407.6 280.8;" xml:space="preserve">
<style type="text/css">
	.st0{fill:#FFDD83;}
	.st1{fill:#00235B;}
	.st2{fill:#E21818;}
	.st3{fill:none;}
	.st4{fill:#FFFFFF;}
</style>

<g>
	<path class="st0" d="M205.9,147.9h-57.5c-19.2,0-34.7-15.6-34.7-34.7v-1.1c0-19.2,15.6-34.7,34.7-34.7h7.6
		c2.2,6.1,5.4,12.4,9.6,18.6C175.7,110.8,205.9,147.9,205.9,147.9z"/>
	<path class="st1" d="M299,112.1v1.1c0,19.2-15.5,34.7-34.7,34.7h-58.4c0,0-30.2-37.1-40.2-51.9c-4.2-6.2-7.4-12.5-9.6-18.6h108.2
		C283.5,77.3,299,92.9,299,112.1z"/>
	<path class="st2" d="M255.7,77.3c-2.2,6.1-5.4,12.4-9.6,18.6c-10,14.8-40.2,51.9-40.2,51.9s-30.2-37.1-40.2-51.9
		c-4.2-6.2-7.4-12.5-9.6-18.6c-8.2-22.5-3.1-43.7,12.9-59.7c10.2-10.2,23.6-15.3,36.9-15.3s26.7,5.1,36.9,15.3
		C258.8,33.6,263.9,54.8,255.7,77.3z"/>
	<path class="st3" d="M246.1,96c-10,14.8-40.2,51.9-40.2,51.9s-30.2-37.1-40.2-51.9C146,66.8,148.6,38,169,17.6
		c10.2-10.2,23.5-15.3,36.9-15.3c13.4,0,26.7,5.1,36.9,15.3C263.2,38,265.9,66.8,246.1,96z"/>
	<circle class="st4" cx="205.9" cy="50.1" r="23.4"/>
</g>
</svg>
