<?xml version="1.0" encoding="utf-8"?>
<!-- Generator: Adobe Illustrator 27.5.0, SVG Export Plug-In . SVG Version: 6.00 Build 0)  -->
<svg version="1.1" id="Layer_1" xmlns="http://www.w3.org/2000/svg" xmlns:xlink="http://www.w3.org/1999/xlink" x="0px" y="0px"
	 viewBox="0 0 228.7 181.5" style="enable-background:new 0 0 228.7 181.5;" xml:space="preserve">
<style type="text/css">
	.st0{fill:none;}
	.st1{fill:#FFFFFF;}
	.st2{fill:#00235B;}
	.st3{fill:#E21818;}
	.st4{fill:#231F20;}
</style>
<path class="st0" d="M114.1,181.1H43.7c-23.5,0-42.5-19.1-42.5-42.5v-1.3c0-23.5,19.1-42.5,42.5-42.5h9.4
	c2.7,7.5,6.6,15.1,11.8,22.8C77.2,135.7,114.1,181.1,114.1,181.1z"/>
<circle class="st1" cx="114" cy="46.4" r="3.5"/>
<path class="st1" d="M114,46.4c0-1.3,0.7-2.4,1.7-3c-0.5-0.3-1.1-0.5-1.7-0.5c-1.9,0-3.5,1.6-3.5,3.5c0,2.7,2.9,4.3,5.2,3
	C114.7,48.8,114,47.7,114,46.4z"/>
<path class="st2" d="M224.5,138.5v1.3c0,22.8-18.5,41.3-41.3,41.3h-69.5c0,0-35.9-44.1-47.9-61.8c-5-7.4-8.8-14.8-11.5-22.1h128.8
	C206,97.2,224.5,115.7,224.5,138.5z"/>
<path class="st3" d="M173,97.2c-2.6,7.3-6.4,14.7-11.5,22.1c-11.9,17.7-47.8,61.8-47.8,61.8S77.8,137,65.8,119.3
	c-5-7.4-8.8-14.8-11.5-22.1c-9.7-26.8-3.6-52.1,15.4-71.1c12.1-12.1,28-18.2,43.9-18.2s31.8,6.1,43.9,18.2
	C176.7,45.1,182.7,70.4,173,97.2z"/>
<circle class="st1" cx="113.7" cy="68.2" r="44.6"/>
<path class="st4" d="M135.6,59.5l-4.7,3.5c-3.1,2.4-7.6,1.5-9.6-1.9c-1.7-2.9-1-6.7,1.7-8.7c2.9-2.2,1.9-1.4,4.7-3.5
	c1-0.8,8.6-7-2.8-10.7c-8.4-2.3-17.2-0.5-23.9,4.5c-12.2,9.2-14.7,26.5-5.5,38.7c9.2,12.2,26.5,14.7,38.7,5.5
	c6.8-5.1,10.9-13.1,11-21.7C144.7,53.2,136.7,58.7,135.6,59.5z"/>
<path class="st1" d="M135.2,67.9c1.9,0,3.5,1.6,3.5,3.5c0,1.9-1.6,3.5-3.5,3.5s-3.5-1.6-3.5-3.5C131.7,69.4,133.3,67.9,135.2,67.9z"
	/>
<path class="st1" d="M136.9,68.3c-2.3-1.3-5.2,0.3-5.2,3c0,1.9,1.6,3.5,3.5,3.5c0.6,0,1.2-0.2,1.7-0.5
	C134.6,73,134.6,69.7,136.9,68.3z"/>
<path class="st1" d="M107.2,55.4c0,2.4-2,4.4-4.4,4.4c-2.4,0-4.4-2-4.4-4.4c0-2.4,2-4.4,4.4-4.4C105.3,51,107.2,53,107.2,55.4z"/>
<path class="st1" d="M104.9,51.5c-2.9-1.5-6.4,0.6-6.4,3.9c0,3.3,3.5,5.4,6.4,3.9C101.7,57.7,101.7,53.1,104.9,51.5z"/>
<path class="st1" d="M129.6,80.3c0,2.3-1.9,4.2-4.2,4.2c-2.3,0-4.2-1.9-4.2-4.2c0-2.3,1.9-4.2,4.2-4.2
	C127.7,76.1,129.6,78,129.6,80.3z"/>
<path class="st1" d="M127.5,76.7c-0.6-0.4-1.3-0.6-2.1-0.6c-2.3,0-4.2,1.9-4.2,4.2c0,3.2,3.5,5.2,6.3,3.6
	C124.7,82.3,124.7,78.3,127.5,76.7z"/>
<circle class="st1" cx="111.6" cy="80.8" r="4.7"/>
<path class="st1" d="M111.6,80.8c0-1.7,0.9-3.2,2.3-4c-0.7-0.4-1.5-0.6-2.3-0.6c-2.6,0-4.7,2.1-4.7,4.7c0,2.6,2.1,4.7,4.7,4.7
	c0.9,0,1.7-0.2,2.3-0.6C112.5,84,111.6,82.5,111.6,80.8z"/>
<ellipse transform="matrix(0.7071 -0.7071 0.7071 0.7071 -19.7406 92.2202)" class="st1" cx="101.4" cy="69.9" rx="4.9" ry="4.9"/>
<path class="st1" d="M103.9,65.7c-3.2-1.9-7.3,0.5-7.3,4.2c0,3.8,4.1,6.1,7.3,4.2C100.6,72.3,100.6,67.6,103.9,65.7z"/>
<g>
</g>
<g>
</g>
<g>
</g>
<g>
</g>
<g>
</g>
<g>
</g>
</svg>
