<?xml version="1.0" encoding="utf-8"?>
<!-- Generator: Adobe Illustrator 27.5.0, SVG Export Plug-In . SVG Version: 6.00 Build 0)  -->
<svg version="1.1" id="Layer_1" xmlns="http://www.w3.org/2000/svg" xmlns:xlink="http://www.w3.org/1999/xlink" x="0px" y="0px"
	 viewBox="0 0 228.7 181.5" style="enable-background:new 0 0 228.7 181.5;" xml:space="preserve">
<style type="text/css">
	.st0{fill:none;}
	.st1{fill:#FFDD83;}
	.st2{fill:#E21818;}
	.st3{fill:#FFFFFF;}
	.st4{fill:#231F20;stroke:#231F20;stroke-width:0.8272;stroke-miterlimit:10;}
</style>
<g>
	<path class="st0" d="M228.7,137.1v1.3c0,23.5-19.1,42.6-42.6,42.6h-71.7c0,0-37.1-45.5-49.4-63.8c-5.2-7.7-9.1-15.3-11.8-22.9
		h132.9C209.6,94.4,228.7,113.5,228.7,137.1z"/>
	<g>
		<path class="st1" d="M115.3,181.5H44.1C20.3,181.5,1,162.2,1,138.4v-1.3C1,113.3,20.3,94,44.1,94h9.5c2.7,7.6,6.7,15.3,12,23.1
			C77.9,135.5,115.3,181.5,115.3,181.5z"/>
		<path class="st2" d="M177.1,94c-2.7,7.6-6.7,15.3-12,23.1c-12.4,18.4-49.8,64.4-49.8,64.4s-37.4-46-49.9-64.4
			c-5.2-7.7-9.2-15.5-12-23.1c-10.1-27.9-3.8-54.2,16-74.1C82.2,7.3,98.8,1,115.3,1s33.1,6.3,45.7,19
			C180.9,39.8,187.3,66.1,177.1,94z"/>
		<path class="st0" d="M165.2,117.1c-12.4,18.4-49.8,64.4-49.8,64.4s-37.4-46-49.8-64.4C41,80.9,44.3,45.2,69.6,20
			C82.2,7.3,98.8,1,115.3,1s33.1,6.3,45.8,19C186.4,45.2,189.7,80.9,165.2,117.1z"/>
		<circle class="st3" cx="115.3" cy="63.9" r="46.5"/>
		<g id="XMLID_154_">
			<path id="XMLID_159_" class="st4" d="M131.5,34.1l-32,10c-1.1,0.3-2,1.3-2,2.5V77c-5.8-2.7-12.4,1.6-12.4,8
				c0,4.8,3.9,8.8,8.8,8.8c5,0,9-4.2,8.8-9.3c0-0.2,0,2,0-29.4l26.9-8.7v22.2c-5.8-2.7-12.4,1.6-12.4,8c0,4.8,3.9,8.8,8.8,8.8
				c4.5,0,8.8-3.4,8.8-9.2c0-2.8,0-38.4,0-39.4C134.6,34.9,133.1,33.7,131.5,34.1z"/>
			<path id="XMLID_158_" class="st4" d="M131.5,34.1l-15.9,4.9c-0.4,3.8,0.1,7.7,1.7,11.2l12.2-4v15.5c1.6,0.6,3.3,1,5.1,1.2
				c0-0.2,0-24.5,0-26.3C134.6,34.9,133.1,33.7,131.5,34.1z"/>
			<g id="XMLID_162_">
				<path id="XMLID_157_" class="st4" d="M102.6,80.5c-1.4-1.8-3.6-3-6.1-3c-4.2,0-7.7,3.4-7.7,7.7c0,4.9,4.5,8.5,9.3,7.5
					c2.9-1.6,4.7-4.7,4.5-8.2C102.6,84.2,102.6,84.8,102.6,80.5z"/>
				<path id="XMLID_156_" class="st4" d="M134.6,76.1c0-0.2,0,0.4,0-4.3c-1.4-1.9-3.6-3.1-6.1-3.1c-4.2,0-7.7,3.4-7.7,7.7
					c0,5,4.8,8.7,9.7,7.4C133,82.2,134.7,79.4,134.6,76.1z"/>
			</g>
		</g>
	</g>
</g>
<g>
</g>
<g>
</g>
<g>
</g>
<g>
</g>
<g>
</g>
<g>
</g>
</svg>
