<?xml version="1.0" encoding="utf-8"?>
<!-- Generator: Adobe Illustrator 27.5.0, SVG Export Plug-In . SVG Version: 6.00 Build 0)  -->
<svg version="1.1" id="Layer_1" xmlns="http://www.w3.org/2000/svg" xmlns:xlink="http://www.w3.org/1999/xlink" x="0px" y="0px"
	 viewBox="0 0 228.7 181.5" style="enable-background:new 0 0 228.7 181.5;" xml:space="preserve">
<style type="text/css">
	.st0{fill:#FFDD83;}
	.st1{fill:#00235B;}
	.st2{fill:#E21818;}
	.st3{fill:#FFFFFF;}
	.st4{fill:#231F20;}
</style>
<g>
	<path class="st0" d="M114.1,181.1H43.7c-23.5,0-42.5-19.1-42.5-42.5v-1.3c0-23.5,19.1-42.5,42.5-42.5h9.4
		c2.7,7.5,6.6,15.1,11.8,22.8C77.2,135.7,114.1,181.1,114.1,181.1z"/>
	<path class="st1" d="M228.1,137.3v1.3c0,23.5-19,42.5-42.5,42.5h-71.5c0,0-36.9-45.4-49.2-63.6c-5.2-7.6-9.1-15.3-11.8-22.8h132.5
		C209.1,94.8,228.1,113.8,228.1,137.3z"/>
	<path class="st2" d="M175.1,94.8c-2.7,7.5-6.6,15.1-11.8,22.8c-12.3,18.2-49.2,63.6-49.2,63.6s-36.9-45.4-49.2-63.6
		c-5.2-7.6-9.1-15.3-11.8-22.8c-10-27.6-3.8-53.5,15.8-73.1C81.4,9.2,97.8,2.9,114.1,2.9s32.7,6.2,45.2,18.7
		C178.9,41.2,185.1,67.2,175.1,94.8z"/>
	<circle class="st3" cx="114.1" cy="65" r="45.9"/>
	<circle class="st3" cx="114.4" cy="42.5" r="3.6"/>
	<path class="st3" d="M114.4,42.5c0-1.3,0.7-2.5,1.8-3.1c-0.5-0.3-1.1-0.5-1.8-0.5c-2,0-3.6,1.6-3.6,3.6c0,2.8,3,4.5,5.4,3.1
		C115.1,45,114.4,43.9,114.4,42.5z"/>
	<path class="st3" d="M136.2,64.7c2,0,3.6,1.6,3.6,3.6c0,2-1.6,3.6-3.6,3.6s-3.6-1.6-3.6-3.6C132.6,66.3,134.2,64.7,136.2,64.7z"/>
	<path class="st3" d="M138,65.1c-2.4-1.4-5.4,0.3-5.4,3.1c0,2,1.6,3.6,3.6,3.6c0.7,0,1.3-0.2,1.8-0.5
		C135.6,69.9,135.6,66.5,138,65.1z"/>
	<path class="st3" d="M107.5,51.8c0,2.5-2,4.5-4.5,4.5c-2.5,0-4.5-2-4.5-4.5c0-2.5,2-4.5,4.5-4.5C105.4,47.3,107.5,49.3,107.5,51.8z
		"/>
	<path class="st3" d="M105,47.8c-3-1.6-6.6,0.6-6.6,4c0,3.4,3.6,5.6,6.6,4C101.7,54.2,101.7,49.5,105,47.8z"/>
	<path class="st3" d="M130.4,77.4c0,2.4-1.9,4.3-4.3,4.3c-2.4,0-4.3-1.9-4.3-4.3c0-2.4,1.9-4.3,4.3-4.3
		C128.5,73.1,130.4,75,130.4,77.4z"/>
	<circle class="st3" cx="111.9" cy="77.9" r="4.8"/>
	<path class="st3" d="M111.9,77.9c0-1.8,1-3.3,2.4-4.2c-0.7-0.4-1.5-0.6-2.4-0.6c-2.7,0-4.8,2.2-4.8,4.8c0,2.7,2.2,4.8,4.8,4.8
		c0.9,0,1.7-0.2,2.4-0.6C112.9,81.2,111.9,79.7,111.9,77.9z"/>
	<ellipse transform="matrix(0.7288 -0.6847 0.6847 0.7288 -18.198 87.6088)" class="st3" cx="101.5" cy="66.8" rx="5" ry="5"/>
	<path class="st3" d="M104,62.4c-3.3-1.9-7.5,0.5-7.5,4.3c0,3.9,4.2,6.3,7.5,4.3C100.7,69.2,100.7,64.4,104,62.4z"/>
	<path class="st4" d="M144.2,50.1v23.6c0,9.1-7.4,16.5-16.5,16.5c-7.5,0-13.8-5-15.8-11.8l0,0c-1.8-2.8,0.6-6.9,2.1-9.3
		c1.1-1.8,5-1.4,6-2.5h0c0.5,0.2,1.1,0.3,1.7,0.3c2.9,0,5.2-2.3,5.2-5.2h-6.7l-4.8-4.2l4.8-9.1c2.5-0.3,5-0.4,7.6-0.4
		C133.2,48.1,138.7,48.8,144.2,50.1z M144.2,61.7h-10.3c0,2.9,2.3,5.2,5.2,5.2C141.9,66.9,144.2,64.6,144.2,61.7z M138,77.4
		c0-4.4-3.5-7.9-7.9-7.9c-4.4,0-7.9,3.5-7.9,7.9c2.6-0.8,5.2-1.1,7.9-1.1C132.7,76.3,135.4,76.7,138,77.4z"/>
	<path class="st4" d="M121.6,66.9c-0.6,0-1.2-0.1-1.7-0.3h0c-1.1,1.1-5,0.7-6,2.5c-1.5,2.4-3.9,6.5-2.1,9.3l0,0
		c0.1,0.3,0.2,0.5,0.2,0.8c0.5-0.2,1-0.5,1.5-0.8C117.7,76,120.8,71.8,121.6,66.9z"/>
	<path class="st4" d="M116.2,55.7c0.2,0.5,0.3,1,0.3,1.6h-1.1l-0.1,0.2l4.8,4.2h1.7V48.3c-0.6,0-1.2,0.1-1.7,0.2L116.2,55.7z"/>
	<path class="st4" d="M130.7,89.9c-1,0.2-2,0.3-3.1,0.3c-7.5,0-13.8-5-15.8-11.8c2.2-1.2,4-3,5.4-5v0.3
		C117.2,81.8,123,88.5,130.7,89.9z"/>
	<path class="st4" d="M103.6,38.5c-3.6,0-7.3,0.3-10.9,0.9c-1.9,0.3-3.8,0.7-5.6,1.2v16.8c0-2.9,2.3-5.2,5.2-5.2l0.2,0l0.2,0
		c2.6,0.2,4.7,2.4,4.7,5.1H87v6.8c0,9.1,7.4,16.5,16.5,16.5c3,0,5.8-0.8,8.2-2.2c4.3-2.5,7.3-6.8,8.1-11.8c0.1-0.8,0.2-1.7,0.2-2.5
		V40.5C114.7,39.2,109.1,38.5,103.6,38.5z M101.1,70.3c-4.4,0-7.9-3.5-7.9-7.9H109C109,66.7,105.5,70.3,101.1,70.3z M104.4,57.3
		c0-2.9,2.3-5.2,5.2-5.2c2.9,0,5.2,2.3,5.2,5.2H104.4z"/>
	<path class="st4" d="M106.4,80.4c-0.9,0.2-1.9,0.2-2.8,0.2c-9.1,0-16.5-7.4-16.5-16.5v-6.8h5.6v6.8C92.7,72.2,98.6,79,106.4,80.4z"
		/>
	<path class="st4" d="M92.7,39.4v12.8l-0.2,0l-0.2,0c-2.9,0-5.2,2.3-5.2,5.2V40.5C88.9,40,90.8,39.7,92.7,39.4z"/>
</g>
<g>
</g>
<g>
</g>
<g>
</g>
<g>
</g>
<g>
</g>
<g>
</g>
</svg>
